<svg id="Calque_1" data-name="Calque 1" xmlns="http://www.w3.org/2000/svg" viewBox="0 0 1734 1080" width="200" height="100"><defs><style>.cls-1{fill:#d9d9d9;}.cls-2{fill:#e3e3e5;}.cls-3{fill:#f1f1f2;}.cls-3,.cls-4,.cls-5{isolation:isolate;}.cls-4,.cls-7{fill:#cdcdcf;}.cls-5{fill:#f2f2f1;}.cls-6{fill:#3bb18b;}</style></defs><path class="cls-1" d="M338.16,650.15a561.77,561.77,0,0,1-5.66-79.44V497.13c0-77.43-58.39-141.86-132.94-146.69A142.4,142.4,0,0,0,47.71,492.53v78.18a563.25,563.25,0,0,1-5.65,79.44L32,720.83a7.91,7.91,0,0,0,7.83,9c12.28,0,18.73-5.42,23.9-9.77C68,716.44,70.92,714,77.45,714s9.4,2.4,13.74,6.05c5.16,4.35,11.6,9.77,23.9,9.77s18.73-5.42,23.9-9.78c4.33-3.64,7.19-6,13.69-6s9.37,2.4,13.69,6c5.18,4.36,11.61,9.78,23.89,9.78s18.71-5.42,23.89-9.78c4.32-3.64,7.18-6,13.69-6s9.35,2.4,13.67,6c5.16,4.36,11.59,9.78,23.86,9.78s18.68-5.43,23.84-9.78c4.31-3.64,7.17-6,13.64-6s9.35,2.4,13.68,6c5.17,4.35,11.6,9.78,23.88,9.78a7.92,7.92,0,0,0,7.84-9Z"></path><path class="cls-2" d="M326.72,708c-5.17-4.36-11.6-9.78-23.87-9.78S284.17,703.64,279,708c-4.31,3.64-7.17,6-13.64,6s-9.33-2.41-13.66-6c-5.16-4.35-11.59-9.78-23.87-9.78S209.13,703.63,204,708c-4.33,3.64-7.18,6-13.69,6s-9.36-2.41-13.69-6c-5.17-4.36-11.6-9.78-23.89-9.78S134,703.63,128.8,708c-4.33,3.65-7.19,6.06-13.71,6.06s-9.39-2.41-13.73-6.06c-5.16-4.35-11.61-9.77-23.91-9.77S58.71,703.63,53.54,708c-1.52,1.27-2.86,2.39-4.22,3.31l8.4-58.9a580,580,0,0,0,5.81-81.68V492.53a126.59,126.59,0,0,1,135-126.3c66.24,4.29,118.14,61.79,118.14,130.9v73.58a580,580,0,0,0,5.81,81.68l8.4,58.89C329.54,710.36,328.22,709.25,326.72,708Z"></path><path class="cls-3" d="M86,652.38a734.14,734.14,0,0,0,4.58-81.67V492.53c0-35.37,11.18-68.17,31.49-92.37,17.72-21.12,40.17-33,64.19-34.11A126.52,126.52,0,0,0,63.53,492.53v78.18a579.71,579.71,0,0,1-5.81,81.67l-8.4,58.91c1.36-.92,2.7-2,4.22-3.31,5.17-4.35,11.61-9.77,23.91-9.77a33.22,33.22,0,0,1,3.33.37Z"></path><path class="cls-4" d="M322.49,652.38a579.71,579.71,0,0,1-5.81-81.67V497.13c0-69.11-51.9-126.61-118.14-130.9-2.83-.18-5.63-.12-8.43-.12,2.2,0,4.4-.06,6.63.12,52.11,4.29,92.94,61.79,92.94,130.9v73.58a734.13,734.13,0,0,0,4.57,81.67l5.19,46.22a29.31,29.31,0,0,1,3.41-.39c12.27,0,18.7,5.42,23.87,9.78,1.5,1.26,2.82,2.37,4.17,3.29Z"></path><path class="cls-5" d="M476,651.08H422.2V530.75H476a59.14,59.14,0,0,1,23.57,4.73,61.93,61.93,0,0,1,19.23,12.87,60.07,60.07,0,0,1,12.94,19.15,60.32,60.32,0,0,1,0,46.83,60.07,60.07,0,0,1-12.94,19.15,61.76,61.76,0,0,1-19.23,12.87A59.14,59.14,0,0,1,476,651.08Zm-3.72-91H453.83v61.71h18.45a30.62,30.62,0,0,0,28.61-18.84,31.28,31.28,0,0,0,0-24,30.75,30.75,0,0,0-28.61-18.84Z"></path><path class="cls-5" d="M551.05,651.08V530.75h96v28.69H582.37v17.21H643.3v28.69H582.37v17.21H647v28.53Z"></path><path class="cls-5" d="M733,641.75l-3.47,9.33h-29l-44.81-120h36l23.26,62.18Z"></path><path class="cls-5" d="M844.1,613.71H822.23v37.37H790V530.75H844.1a47.94,47.94,0,0,1,16.67,3,45.58,45.58,0,0,1,14.1,8.22,39.35,39.35,0,0,1,9.77,12.71,36.51,36.51,0,0,1,3.65,16.28,38.87,38.87,0,0,1-3.65,16.75,44.76,44.76,0,0,1-9.77,13.57,46.09,46.09,0,0,1-14.1,9.14A42.78,42.78,0,0,1,844.1,613.71Zm-2.33-56.13H823v25.89h18.76a13.88,13.88,0,0,0,5.27-1,13.59,13.59,0,0,0,4.34-2.77,13.36,13.36,0,0,0,3-4.09,12.41,12.41,0,0,0,0-10.17,13.31,13.31,0,0,0-3-4.08,13.45,13.45,0,0,0-4.34-2.78A13.88,13.88,0,0,0,841.77,557.58Z"></path><path class="cls-5" d="M978.53,651.08V605.64H935.89v45.44H902.55V530.75h33.34v45.9h42.64v-45.9h33.65V651.08Z"></path><path class="cls-5" d="M1103.66,651.08l-6.2-16.59H1060.4l-6.2,16.59h-34l44.5-120.33h28.38l44.5,120.33ZM1079,574.63l-9.62,31.79h19.07Z"></path><path class="cls-5" d="M1221,650.92l-41.7-64.19v64.19h-32.1V530.75h31.94L1221,595.57V530.75h32.26V650.92Z"></path><path class="cls-5" d="M1365.86,560.53h-33v90.55h-32.72V560.53h-33l-2.17-2.18v-27.6H1368v27.6Z"></path><path class="cls-5" d="M1432.84,654.8a63,63,0,0,1-25-5,63.67,63.67,0,0,1-34-33.81,63.56,63.56,0,0,1,0-49.61,64,64,0,0,1,13.72-20.24,65.69,65.69,0,0,1,20.32-13.64,64.15,64.15,0,0,1,49.85,0,65.66,65.66,0,0,1,20.39,13.64,64.12,64.12,0,0,1,13.72,20.24,63.56,63.56,0,0,1,0,49.61,63.49,63.49,0,0,1-34.11,33.81A63.31,63.31,0,0,1,1432.84,654.8Zm0-96.6a29.51,29.51,0,0,0-12.64,2.71,32.18,32.18,0,0,0-10,7.21,34.23,34.23,0,0,0,0,46.21,32,32,0,0,0,10,7.21,30.83,30.83,0,0,0,25.28,0,32,32,0,0,0,10-7.21,33.34,33.34,0,0,0,6.59-10.55,34,34,0,0,0-6.59-35.66,32.18,32.18,0,0,0-10-7.21A29.51,29.51,0,0,0,1432.84,558.2Z"></path><path class="cls-5" d="M1592.17,609.78l-13.27,21.91a2.4,2.4,0,0,1-1.55,1.25,7.25,7.25,0,0,1-1.87.3,7.6,7.6,0,0,1-2-.3,2.4,2.4,0,0,1-1.55-1.25l-25.74-42.48v61.87H1514.7V530.75h29.46a3.24,3.24,0,0,1,2.64,1.4l28.53,47.6,16.84-27.94Z"></path><path class="cls-6" d="M1604.76,531.38a2.74,2.74,0,0,1,1.74-.63h29.61V651.08h-31.47V589.21Z"></path><polygon class="cls-6" points="721.6 575.42 738.2 531.07 774.17 531.07 739.73 623.62 721.6 575.42"></polygon><ellipse class="cls-6" cx="144.14" cy="502.72" rx="26.88" ry="44"></ellipse><path class="cls-7" d="M144.14,460.22c14,0,25.38,19,25.38,42.5s-11.36,42.5-25.38,42.5-25.38-19-25.38-42.5,11.36-42.5,25.38-42.5m0-3c-7.88,0-15.16,4.94-20.52,13.91-5.07,8.48-7.86,19.7-7.86,31.59s2.79,23.1,7.86,31.59c5.36,9,12.64,13.91,20.52,13.91s15.16-4.94,20.52-13.91c5.07-8.49,7.86-19.71,7.86-31.59s-2.79-23.11-7.86-31.59c-5.36-9-12.64-13.91-20.52-13.91Z"></path><ellipse class="cls-6" cx="235.77" cy="502.72" rx="26.88" ry="44"></ellipse><path class="cls-7" d="M235.77,460.22c14,0,25.37,19,25.37,42.5s-11.36,42.5-25.37,42.5-25.38-19-25.38-42.5,11.36-42.5,25.38-42.5m0-3c-7.88,0-15.17,4.94-20.52,13.91-5.07,8.48-7.86,19.7-7.86,31.59s2.79,23.1,7.86,31.59c5.35,9,12.64,13.91,20.52,13.91s15.16-4.94,20.52-13.91c5.06-8.49,7.85-19.71,7.85-31.59s-2.79-23.11-7.85-31.59c-5.36-9-12.65-13.91-20.52-13.91Z"></path></svg>